<?xml version="1.0" encoding="utf-8"?>
<!-- Generator: Adobe Illustrator 24.1.0, SVG Export Plug-In . SVG Version: 6.00 Build 0)  -->
<svg version="1.1" xmlns="http://www.w3.org/2000/svg" xmlns:xlink="http://www.w3.org/1999/xlink" x="0px" y="0px"
	 viewBox="0 0 500 500" style="enable-background:new 0 0 500 500;" xml:space="preserve">
<style type="text/css">
	.st0{fill:#2F3E46;stroke:#2F3E46;stroke-miterlimit:10;}
	.st1{fill:#FFFFFF;stroke:#FFFFFF;stroke-width:3;stroke-miterlimit:10;}
	.st2{fill:none;stroke:#FFFFFF;stroke-width:3;stroke-miterlimit:10;}
	.st3{fill:#FFFFFF;stroke:#FFFFFF;stroke-miterlimit:10;}
	.st4{fill:#FFFFFF;stroke:#FFFFFF;stroke-width:2;stroke-miterlimit:10;}
	.st5{fill:#FFFFFF;}
</style>
<g id="Capa_2">
	<path class="st0" d="M451.15,313.5H47.85c-19.52,0-35.35-15.83-35.35-35.35v-79.29c0-19.52,15.83-35.35,35.35-35.35h403.29
		c19.52,0,35.35,15.83,35.35,35.35v79.29C486.5,297.67,470.67,313.5,451.15,313.5z"/>
</g>
<g id="Capa_1">
	<g>
		<polygon class="st1" points="406.89,202.36 406.89,209.62 414.95,214.34 414.95,207.07 442.63,190.86 434.58,186.15 		"/>
		<polygon class="st2" points="396.14,196.07 396.14,221.95 423.84,238.16 451.53,221.95 451.53,196.07 442.63,190.86 
			414.95,207.07 414.95,214.34 406.89,209.62 406.89,202.36 434.58,186.15 423.84,179.86 		"/>
		<path class="st3" d="M463.85,206.2l-22.87,13.2c-0.54,0.31-1.23,0.13-1.54-0.41l0,0c-0.31-0.54-0.13-1.23,0.41-1.54l22.87-13.2
			c0.54-0.31,1.23-0.13,1.54,0.41l0,0C464.57,205.21,464.39,205.89,463.85,206.2z"/>
		<path class="st3" d="M458.84,194.7l-16.35,9.44c-0.54,0.31-1.23,0.13-1.54-0.41l0,0c-0.31-0.54-0.13-1.23,0.41-1.54l16.35-9.44
			c0.54-0.31,1.23-0.13,1.54,0.41l0,0C459.56,193.7,459.38,194.39,458.84,194.7z"/>
		<path class="st3" d="M453.59,180.37l-9.78,5.65c-0.54,0.31-1.23,0.13-1.54-0.41l0,0c-0.31-0.54-0.13-1.23,0.41-1.54l9.78-5.65
			c0.54-0.31,1.23-0.13,1.54,0.41l0,0C454.31,179.37,454.13,180.06,453.59,180.37z"/>
		<path class="st4" d="M96.16,294.91h8l19.28-76.43H96.31c-15.21-0.24-36.61,22.81-36.61,22.81c16.23-23.99,30.57-26.1,30.57-26.1
			h37.86l-20.93,82.54h-10.9h-3.04c0,0-0.98-16.7-17.24-17.58s-18.56,17.58-18.56,17.58h-1.72c0-11.2,9.08-20.28,20.28-20.28
			s20.28,9.08,20.28,20.28"/>
		<path class="st4" d="M49.12,245.52v4.24c0,0-17.4-3.28-23.99,23.99c-0.99,4.05-1.15,14.73-0.69,17.53
			c-1.01-4.85-0.99-17.37-0.19-22.19c0.85-5.17,2.8-10.34,6.08-14.47c3.38-4.26,8.58-7.14,13.83-8.5
			C45.77,245.68,47.44,245.41,49.12,245.52z"/>
		<path class="st5" d="M143.31,232.56c-7.26,0-11.02-4.75-9.5-12.01l1.08-4.84h57.44c7.17,0,10.93,4.84,9.41,12.01l-0.99,4.84
			H143.31z M153.53,238.47h22.4l-6.18,29.48c-0.63,3.58,0.72,7.17,3.5,8.96l-1.61,1.52h-30.65l-1.08-1.52
			c3.49-1.79,6.45-5.38,7.26-8.96L153.53,238.47z"/>
		<path class="st5" d="M262.59,278.44h-25.54l-11.29-17.47l-1.34,6.99c-0.72,3.58,0.72,7.17,3.49,8.96l-1.7,1.52h-30.65l-1.16-1.43
			l0.18-0.09c3.49-1.79,6.36-5.38,7.26-8.96l4.03-19c0.63-3.58-0.72-7.17-3.5-8.96l1.7-1.52h42.66c1.79,0,3.23-1.17,3.58-2.96
			c0.36-1.79-0.54-2.96-2.33-2.96h-38.53l1.25-6.36c0.63-3.58-0.72-7.17-3.49-8.96l1.7-1.52h45.52c11.74,0,17.83,7.8,15.23,19.98
			c-2.24,10.75-10.39,18.19-20.79,19.45l12.1,18.46c0.63,1.08,1.88,2.24,3.32,3.41L262.59,278.44z"/>
		<path class="st5" d="M312.06,270.82H294.5l-3.23,5.56c-0.72,1.25-2.06,2.06-3.32,2.06h-21.42l-0.81-1.61
			c0.99-0.45,1.79-0.81,2.6-1.25l6-10.13c-0.99-0.63-2.06-1.17-3.23-1.7l1.88-2.15h37.64l-2.33-14.52l-5.11,8.6h-23.12l21.15-35.67
			c-0.81-0.81-1.97-1.43-3.41-2.15l1.88-2.15h30.65l0.99,2.15c-1.43,0.54-2.96,1.25-4.39,2.15l6.99,41.58h3.58l0.99,2.15
			c-1.34,0.54-2.69,1.08-3.94,1.7l1.7,10.13c0.63,0.45,1.25,0.81,2.06,1.25l-1.52,1.61h-21.42c-1.25,0-2.24-0.81-2.42-2.06
			L312.06,270.82z"/>
		<g>
			<path class="st5" d="M372.69,269.23l18.61-12.64h18.27l-18.17,12.64h16.8l-0.54,2.64c-0.88,3.92-4.02,6.56-7.98,6.56h-31.2
				l-0.64-0.78c1.96-0.98,3.58-2.99,4.07-4.95L372.69,269.23z M414.47,244.15l0.59,0.78c-1.91,0.98-3.53,2.99-4.02,4.95l-0.78,3.48
				h-35.51l0.54-2.65c0.83-3.97,4.02-6.56,7.98-6.56H414.47z"/>
			<path class="st5" d="M413.44,269.23l18.61-12.64h18.27l-18.17,12.64h16.8l-0.54,2.64c-0.88,3.92-4.02,6.56-7.98,6.56h-31.2
				l-0.64-0.78c1.96-0.98,3.58-2.99,4.07-4.95L413.44,269.23z M455.22,244.15l0.59,0.78c-1.91,0.98-3.53,2.99-4.02,4.95l-0.78,3.48
				H415.5l0.54-2.65c0.83-3.97,4.02-6.56,7.98-6.56H455.22z"/>
			<path class="st5" d="M451.15,277.61c1.91-0.98,3.48-2.94,3.97-4.9l2.2-10.38c0.39-1.96-0.44-3.97-1.96-4.95l0.98-0.78h14.5
				l-3.38,16.12c-0.39,1.96,0.39,3.92,1.86,4.9l-0.88,0.83h-16.75L451.15,277.61z M459.97,249.88c0.39-1.96-0.39-3.92-1.91-4.9
				l0.93-0.83h16.75l0.59,0.78c-1.91,0.98-3.53,2.99-4.02,4.95l-0.78,3.48h-12.25L459.97,249.88z"/>
		</g>
		<path class="st3" d="M354.26,278.44L354.26,278.44c-2.6,0-4.7-2.11-4.7-4.7v-54.7c0-2.6,2.11-4.7,4.7-4.7h0
			c2.6,0,4.7,2.11,4.7,4.7v54.7C358.96,276.33,356.85,278.44,354.26,278.44z"/>
		<path class="st5" d="M126.04,291.37h341.05c1.74,0,3.15,1.39,3.18,3.13v0c0.03,1.78-1.4,3.23-3.18,3.23l-342.59,0.1L126.04,291.37
			z"/>
		<path class="st3" d="M444.78,175.27l-9.78,5.65c-0.54,0.31-1.23,0.13-1.54-0.41l0,0c-0.31-0.54-0.13-1.23,0.41-1.54l9.78-5.65
			c0.54-0.31,1.23-0.13,1.54,0.41l0,0C445.5,174.27,445.32,174.96,444.78,175.27z"/>
	</g>
</g>
</svg>
