<?xml version="1.0" encoding="utf-8"?>
<!-- Generator: Adobe Illustrator 24.1.0, SVG Export Plug-In . SVG Version: 6.00 Build 0)  -->
<svg version="1.1" xmlns="http://www.w3.org/2000/svg" xmlns:xlink="http://www.w3.org/1999/xlink" x="0px" y="0px"
	 viewBox="0 0 500 500" style="enable-background:new 0 0 500 500;" xml:space="preserve">
<style type="text/css">
	.st0{fill:#2F3E46;stroke:#2F3E46;stroke-miterlimit:10;}
	.st1{fill:#FFFFFF;stroke:#FFFFFF;stroke-width:3;stroke-miterlimit:10;}
	.st2{fill:none;stroke:#FFFFFF;stroke-width:3;stroke-miterlimit:10;}
	.st3{fill:#FFFFFF;stroke:#FFFFFF;stroke-miterlimit:10;}
	.st4{fill:#FFFFFF;stroke:#FFFFFF;stroke-width:2;stroke-miterlimit:10;}
	.st5{fill:#FFFFFF;}
	.st6{font-family:'BOREX-VariationSlant';}
	.st7{font-size:89.6199px;}
	.st8{font-size:48.9807px;}
</style>
<g id="Capa_2">
	<path class="st0" d="M451.15,313.5H47.85c-19.52,0-35.35-15.83-35.35-35.35v-79.29c0-19.52,15.83-35.35,35.35-35.35h403.29
		c19.52,0,35.35,15.83,35.35,35.35v79.29C486.5,297.67,470.67,313.5,451.15,313.5z"/>
</g>
<g id="Capa_1">
	<g>
		<polygon class="st1" points="406.89,202.36 406.89,209.62 414.95,214.34 414.95,207.07 442.63,190.86 434.58,186.15 		"/>
		<polygon class="st2" points="396.14,196.07 396.14,221.95 423.84,238.16 451.53,221.95 451.53,196.07 442.63,190.86 
			414.95,207.07 414.95,214.34 406.89,209.62 406.89,202.36 434.58,186.15 423.84,179.86 		"/>
		<path class="st3" d="M463.85,206.2l-22.87,13.2c-0.54,0.31-1.23,0.13-1.54-0.41l0,0c-0.31-0.54-0.13-1.23,0.41-1.54l22.87-13.2
			c0.54-0.31,1.23-0.13,1.54,0.41l0,0C464.57,205.21,464.39,205.89,463.85,206.2z"/>
		<path class="st3" d="M458.84,194.7l-16.35,9.44c-0.54,0.31-1.23,0.13-1.54-0.41l0,0c-0.31-0.54-0.13-1.23,0.41-1.54l16.35-9.44
			c0.54-0.31,1.23-0.13,1.54,0.41l0,0C459.56,193.7,459.38,194.39,458.84,194.7z"/>
		<path class="st3" d="M453.59,180.37l-9.78,5.65c-0.54,0.31-1.23,0.13-1.54-0.41l0,0c-0.31-0.54-0.13-1.23,0.41-1.54l9.78-5.65
			c0.54-0.31,1.23-0.13,1.54,0.41l0,0C454.31,179.37,454.13,180.06,453.59,180.37z"/>
		<path class="st4" d="M96.16,294.91h8l19.28-76.43H96.31c-15.21-0.24-36.61,22.81-36.61,22.81c16.23-23.99,30.57-26.1,30.57-26.1
			h37.86l-20.93,82.54h-10.9h-3.04c0,0-0.98-16.7-17.24-17.58s-18.56,17.58-18.56,17.58h-1.72c0-11.2,9.08-20.28,20.28-20.28
			s20.28,9.08,20.28,20.28"/>
		<path class="st4" d="M49.12,245.52v4.24c0,0-17.4-3.28-23.99,23.99c-0.99,4.05-1.15,14.73-0.69,17.53
			c-1.01-4.85-0.99-17.37-0.19-22.19c0.85-5.17,2.8-10.34,6.08-14.47c3.38-4.26,8.58-7.14,13.83-8.5
			C45.77,245.68,47.44,245.41,49.12,245.52z"/>
		<text transform="matrix(1 0 0 1 121.088 278.4395)" class="st5 st6 st7">TRA</text>
		<text transform="matrix(1 0 0 1 366.9552 278.4395)" class="st5 st6 st8">ZZI</text>
		<path class="st3" d="M354.26,278.44L354.26,278.44c-2.6,0-4.7-2.11-4.7-4.7v-54.7c0-2.6,2.11-4.7,4.7-4.7h0
			c2.6,0,4.7,2.11,4.7,4.7v54.7C358.96,276.33,356.85,278.44,354.26,278.44z"/>
		<path class="st5" d="M126.04,291.37h341.05c1.74,0,3.15,1.39,3.18,3.13v0c0.03,1.78-1.4,3.23-3.18,3.23l-342.59,0.1L126.04,291.37
			z"/>
		<path class="st3" d="M444.78,175.27l-9.78,5.65c-0.54,0.31-1.23,0.13-1.54-0.41l0,0c-0.31-0.54-0.13-1.23,0.41-1.54l9.78-5.65
			c0.54-0.31,1.23-0.13,1.54,0.41l0,0C445.5,174.27,445.32,174.96,444.78,175.27z"/>
	</g>
</g>
</svg>
